<?xml version="1.0" encoding="UTF-8" standalone="no"?>
<svg
   xmlns:dc="http://purl.org/dc/elements/1.1/"
   xmlns:cc="http://creativecommons.org/ns#"
   xmlns:rdf="http://www.w3.org/1999/02/22-rdf-syntax-ns#"
   xmlns:svg="http://www.w3.org/2000/svg"
   xmlns="http://www.w3.org/2000/svg"
   enable-background="new"
   version="1.1"
   id="svg2"
   height="540"
   width="960">
  <defs
     id="defs4" />
  <metadata
     id="metadata7">
    <rdf:RDF>
      <cc:Work
         rdf:about="">
        <dc:format>image/svg+xml</dc:format>
        <dc:type
           rdf:resource="http://purl.org/dc/dcmitype/StillImage" />
        <dc:title></dc:title>
      </cc:Work>
    </rdf:RDF>
  </metadata>
  <g
     style="display:inline"
     id="g3464">
    <path
       id="path3472"
       d="m 598.89771,105.59132 c 25.66603,-11.986942 48.40767,-5.07487 73.4911,9.97487 16.31371,9.78804 36.43503,33.61579 36.43503,33.61579 0,0 -33.6877,4.02893 -56.66905,-4.73907 -16.65072,-6.3527 -23.00292,-9.05588 -48.00404,-11.24696 -18.76102,-1.6442 -45.35356,3.17992 -45.35356,3.17992 0,0 13.91846,-18.55661 40.10052,-30.78455 z"
       style="fill:#ffc90e;fill-opacity:1;stroke:#ffc90e;stroke-width:0;stroke-linecap:round;stroke-miterlimit:4;stroke-opacity:1" />
    <path
       id="path3474"
       d="m 591.92149,91.779973 c 37.97248,-15.057899 67.39044,-4.331003 92.59868,13.389097 29.90531,21.0219 44.60659,52.23042 44.60659,52.23042 0,0 -12.98195,10.98099 -76.90737,1.23905 -15.68591,-2.39046 -33.19656,-9.7482 -54.84814,-11.46447 -29.73695,-2.35718 -70.8033,11.92517 -70.8033,11.92517 0,0 29.80113,-53.22104 65.35354,-67.319267 z"
       style="fill:none;stroke:#ffc90e;stroke-width:10.19117546;stroke-linecap:round;stroke-miterlimit:4;stroke-opacity:1" />
    <path
       style="fill:#ffc90e;fill-opacity:1;stroke:#ffc90e;stroke-width:0;stroke-linecap:round;stroke-miterlimit:4;stroke-opacity:1"
       d="m 373.23389,135.2157 c -15.58437,-10.27937 -32.54184,-17.29982 -55.40621,-0.7497 -18.97629,13.73578 -22.81757,18.51862 -22.81757,18.51862 0,0 13.9401,-0.11104 26.02896,-1.34716 11.93619,-1.22051 13.62279,-2.38024 34.16251,-4.19168 17.17234,-1.51446 32.45094,-0.27606 32.45094,-0.27606 0,0 0.85958,-1.87659 -14.41863,-11.95402 z"
       id="path3476" />
    <path
       style="color:#000000;display:inline;overflow:visible;visibility:visible;fill:none;stroke:#ffc90e;stroke-width:10.19117546;stroke-linecap:round;stroke-linejoin:miter;stroke-miterlimit:4;stroke-dasharray:none;stroke-dashoffset:0;stroke-opacity:1;marker:none;enable-background:accumulate"
       d="m 377.93538,122.79618 c -18.90031,-12.31802 -39.45931,-15.51658 -68.59131,2.76705 -19.61043,12.30777 -35.78466,32.37144 -35.78466,32.37144 0,0 9.00496,8.89171 47.2879,5.53216 21.9646,-1.92752 30.37082,-5.20089 47.23931,-5.56342 10.55651,-0.22688 39.51797,-0.0272 39.51797,-0.0272 0,0 -9.37506,-21.85359 -29.66921,-35.08003 z"
       id="path3478" />
    <path
       style="color:#000000;display:inline;overflow:visible;visibility:visible;fill:#000000;fill-opacity:0;fill-rule:nonzero;stroke:#ffc90e;stroke-width:15;stroke-linecap:round;stroke-linejoin:miter;stroke-miterlimit:4;stroke-dasharray:none;stroke-dashoffset:0;stroke-opacity:1;marker:none;enable-background:accumulate"
       d="m 98.394445,350.78218 c 176.937385,21.04764 204.159755,35.93721 303.836005,67.64363 34.1184,10.85286 113.38322,21.5861 165.13785,2.11028 86.22997,-32.44925 87.33139,-48.08967 277.64511,-71.83969"
       id="path3480" />
    <path
       style="color:#000000;display:inline;overflow:visible;visibility:visible;fill:#000000;fill-opacity:0;fill-rule:nonzero;stroke:#ffc90e;stroke-width:15;stroke-linecap:round;stroke-linejoin:miter;stroke-miterlimit:4;stroke-dasharray:none;stroke-dashoffset:0;stroke-opacity:1;marker:none;enable-background:accumulate"
       d="m 527.14811,429.69134 10.39518,40.08326 72.12489,-8.48528 -20.47145,-49.45242"
       id="path3482" />
    <path
       style="color:#000000;display:inline;overflow:visible;visibility:visible;fill:#000000;fill-opacity:0;fill-rule:nonzero;stroke:#ffc90e;stroke-width:15;stroke-linecap:round;stroke-linejoin:miter;stroke-miterlimit:4;stroke-dasharray:none;stroke-dashoffset:0;stroke-opacity:1;marker:none;enable-background:accumulate"
       d="m 457.32131,429.69134 -3.21662,37.84062 -73.53911,-14.14214 11.70191,-37.48706"
       id="path3484" />
  </g>
</svg>
